<svg xmlns="http://www.w3.org/2000/svg" xmlns:xlink="http://www.w3.org/1999/xlink" contentStyleType="text/css" height="249px" preserveAspectRatio="none" style="width:569px;height:249px;background:#1B1B1B;" version="1.1" viewBox="0 0 569 249" width="569px" zoomAndPan="magnify"><defs/><g><rect fill="#1B1B1B" height="249" style="stroke:none;stroke-width:1.0;" width="569" x="0" y="0"/><!--class IdentityUser--><g id="elem_IdentityUser"><rect codeLine="5" fill="#313139" height="82.9219" id="IdentityUser" rx="2.5" ry="2.5" style="stroke:#E7E7E7;stroke-width:0.5;" width="104.5586" x="295.39" y="7"/><ellipse cx="315.5382" cy="23" fill="#2E5233" rx="11" ry="11" style="stroke:#E7E7E7;stroke-width:1.0;"/><path d="M318.5069,28.6406 Q317.9288,28.9375 317.2882,29.0781 Q316.6476,29.2344 315.9444,29.2344 Q313.4444,29.2344 312.1163,27.5938 Q310.8038,25.9375 310.8038,22.8125 Q310.8038,19.6875 312.1163,18.0313 Q313.4444,16.375 315.9444,16.375 Q316.6476,16.375 317.2882,16.5313 Q317.9444,16.6875 318.5069,16.9844 L318.5069,19.7031 Q317.8819,19.125 317.2882,18.8594 Q316.6944,18.5781 316.0694,18.5781 Q314.7257,18.5781 314.0382,19.6563 Q313.3507,20.7188 313.3507,22.8125 Q313.3507,24.9063 314.0382,25.9844 Q314.7257,27.0469 316.0694,27.0469 Q316.6944,27.0469 317.2882,26.7813 Q317.8819,26.5 318.5069,25.9219 L318.5069,28.6406 Z " fill="#FFFFFF"/><text fill="#FFFFFF" font-family="sans-serif" font-size="10" lengthAdjust="spacing" textLength="61.1182" x="330.6822" y="26.4619">IdentityUser</text><line style="stroke:#E7E7E7;stroke-width:0.5;" x1="296.39" x2="398.9486" y1="39" y2="39"/><text fill="#FFFFFF" font-family="sans-serif" font-size="10" lengthAdjust="spacing" textLength="49.5605" x="301.39" y="52.2822">+string Id</text><text fill="#FFFFFF" font-family="sans-serif" font-size="10" lengthAdjust="spacing" textLength="92.5586" x="301.39" y="63.9229">+string UserName</text><text fill="#FFFFFF" font-family="sans-serif" font-size="10" lengthAdjust="spacing" textLength="68.0078" x="301.39" y="75.5635">+string Email</text><line style="stroke:#E7E7E7;stroke-width:0.5;" x1="296.39" x2="398.9486" y1="81.9219" y2="81.9219"/></g><!--class AppUser--><g id="elem_AppUser"><rect codeLine="12" fill="#313139" height="82.9219" id="AppUser" rx="2.5" ry="2.5" style="stroke:#E7E7E7;stroke-width:0.5;" width="181.3945" x="7" y="85"/><ellipse cx="72.2827" cy="101" fill="#2E5233" rx="11" ry="11" style="stroke:#E7E7E7;stroke-width:1.0;"/><path d="M75.2515,106.6406 Q74.6733,106.9375 74.0327,107.0781 Q73.3921,107.2344 72.689,107.2344 Q70.189,107.2344 68.8608,105.5938 Q67.5483,103.9375 67.5483,100.8125 Q67.5483,97.6875 68.8608,96.0313 Q70.189,94.375 72.689,94.375 Q73.3921,94.375 74.0327,94.5313 Q74.689,94.6875 75.2515,94.9844 L75.2515,97.7031 Q74.6265,97.125 74.0327,96.8594 Q73.439,96.5781 72.814,96.5781 Q71.4702,96.5781 70.7827,97.6563 Q70.0952,98.7188 70.0952,100.8125 Q70.0952,102.9063 70.7827,103.9844 Q71.4702,105.0469 72.814,105.0469 Q73.439,105.0469 74.0327,104.7813 Q74.6265,104.5 75.2515,103.9219 L75.2515,106.6406 Z " fill="#FFFFFF"/><text fill="#FFFFFF" font-family="sans-serif" font-size="10" lengthAdjust="spacing" textLength="42.3291" x="92.7827" y="104.4619">AppUser</text><line style="stroke:#E7E7E7;stroke-width:0.5;" x1="8" x2="187.3945" y1="117" y2="117"/><text fill="#FFFFFF" font-family="sans-serif" font-size="10" lengthAdjust="spacing" textLength="88.1641" x="13" y="130.2822">+string firstname</text><text fill="#FFFFFF" font-family="sans-serif" font-size="10" lengthAdjust="spacing" textLength="167.9199" x="13" y="141.9229">+ICollection&lt;MovieUser&gt; Movies</text><text fill="#FFFFFF" font-family="sans-serif" font-size="10" lengthAdjust="spacing" textLength="169.3945" x="13" y="153.5635">+HashSet&lt;MovieUser&gt; MovieList</text><line style="stroke:#E7E7E7;stroke-width:0.5;" x1="8" x2="187.3945" y1="159.9219" y2="159.9219"/></g><!--class Movie--><g id="elem_Movie"><rect codeLine="18" fill="#313139" height="82.9219" id="Movie" rx="2.5" ry="2.5" style="stroke:#E7E7E7;stroke-width:0.5;" width="74.002" x="488.95" y="142"/><ellipse cx="509.5333" cy="158" fill="#2E5233" rx="11" ry="11" style="stroke:#E7E7E7;stroke-width:1.0;"/><path d="M512.502,163.6406 Q511.9239,163.9375 511.2833,164.0781 Q510.6426,164.2344 509.9395,164.2344 Q507.4395,164.2344 506.1114,162.5938 Q504.7989,160.9375 504.7989,157.8125 Q504.7989,154.6875 506.1114,153.0313 Q507.4395,151.375 509.9395,151.375 Q510.6426,151.375 511.2833,151.5313 Q511.9395,151.6875 512.502,151.9844 L512.502,154.7031 Q511.877,154.125 511.2833,153.8594 Q510.6895,153.5781 510.0645,153.5781 Q508.7208,153.5781 508.0333,154.6563 Q507.3458,155.7188 507.3458,157.8125 Q507.3458,159.9063 508.0333,160.9844 Q508.7208,162.0469 510.0645,162.0469 Q510.6895,162.0469 511.2833,161.7813 Q511.877,161.5 512.502,160.9219 L512.502,163.6406 Z " fill="#FFFFFF"/><text fill="#FFFFFF" font-family="sans-serif" font-size="10" lengthAdjust="spacing" textLength="29.5947" x="524.774" y="161.4619">Movie</text><line style="stroke:#E7E7E7;stroke-width:0.5;" x1="489.95" x2="561.952" y1="174" y2="174"/><text fill="#FFFFFF" font-family="sans-serif" font-size="10" lengthAdjust="spacing" textLength="33.8916" x="494.95" y="187.2822">+int Id</text><text fill="#FFFFFF" font-family="sans-serif" font-size="10" lengthAdjust="spacing" textLength="62.002" x="494.95" y="198.9229">+string Title</text><text fill="#FFFFFF" font-family="sans-serif" font-size="10" lengthAdjust="spacing" textLength="47.0947" x="494.95" y="210.5635">+int Year</text><line style="stroke:#E7E7E7;stroke-width:0.5;" x1="489.95" x2="561.952" y1="216.9219" y2="216.9219"/></g><!--class MovieUser--><g id="elem_MovieUser"><rect codeLine="24" fill="#313139" height="117.8438" id="MovieUser" rx="2.5" ry="2.5" style="stroke:#E7E7E7;stroke-width:0.5;" width="88.6797" x="303.33" y="124.54"/><ellipse cx="320.2614" cy="140.54" fill="#2E5233" rx="11" ry="11" style="stroke:#E7E7E7;stroke-width:1.0;"/><path d="M323.2301,146.1806 Q322.652,146.4775 322.0114,146.6181 Q321.3708,146.7744 320.6676,146.7744 Q318.1676,146.7744 316.8395,145.1338 Q315.527,143.4775 315.527,140.3525 Q315.527,137.2275 316.8395,135.5713 Q318.1676,133.915 320.6676,133.915 Q321.3708,133.915 322.0114,134.0713 Q322.6676,134.2275 323.2301,134.5244 L323.2301,137.2431 Q322.6051,136.665 322.0114,136.3994 Q321.4176,136.1181 320.7926,136.1181 Q319.4489,136.1181 318.7614,137.1963 Q318.0739,138.2588 318.0739,140.3525 Q318.0739,142.4463 318.7614,143.5244 Q319.4489,144.5869 320.7926,144.5869 Q321.4176,144.5869 322.0114,144.3213 Q322.6051,144.04 323.2301,143.4619 L323.2301,146.1806 Z " fill="#FFFFFF"/><text fill="#FFFFFF" font-family="sans-serif" font-size="10" lengthAdjust="spacing" textLength="52.3877" x="334.6906" y="144.0019">MovieUser</text><line style="stroke:#E7E7E7;stroke-width:0.5;" x1="304.33" x2="391.0097" y1="156.54" y2="156.54"/><text fill="#FFFFFF" font-family="sans-serif" font-size="10" lengthAdjust="spacing" textLength="72.3535" x="309.33" y="169.8222">+string IdUser</text><text fill="#FFFFFF" font-family="sans-serif" font-size="10" lengthAdjust="spacing" textLength="63.4863" x="309.33" y="181.4629">+int IdMovie</text><text fill="#FFFFFF" font-family="sans-serif" font-size="10" lengthAdjust="spacing" textLength="48.2666" x="309.33" y="193.1035">+int Note</text><text fill="#FFFFFF" font-family="sans-serif" font-size="10" lengthAdjust="spacing" textLength="75.5859" x="309.33" y="204.7441">+bool hasSeen</text><text fill="#FFFFFF" font-family="sans-serif" font-size="10" lengthAdjust="spacing" textLength="76.6797" x="309.33" y="216.3847">+AppUser User</text><text fill="#FFFFFF" font-family="sans-serif" font-size="10" lengthAdjust="spacing" textLength="62.2021" x="309.33" y="228.0254">+Movie Film</text><line style="stroke:#E7E7E7;stroke-width:0.5;" x1="304.33" x2="391.0097" y1="234.3838" y2="234.3838"/></g><!--link AppUser to IdentityUser--><g id="link_AppUser_IdentityUser"><path codeLine="34" d="M188.57,98.19 C224.33,86.94 247.029,79.7998 277.779,70.1298 " fill="none" id="AppUser-to-IdentityUser" style="stroke:#E7E7E7;stroke-width:1.0;"/><polygon fill="none" points="294.95,64.73,275.9791,64.4061,279.579,75.8534,294.95,64.73" style="stroke:#E7E7E7;stroke-width:1.0;"/></g><!--link AppUser to MovieUser--><g id="link_AppUser_MovieUser"><path codeLine="37" d="M188.57,147.12 C227.52,156.07 271.34,166.14 302.95,173.41 " fill="none" id="AppUser-MovieUser" style="stroke:#E7E7E7;stroke-width:1.0;"/><text fill="#FFFFFF" font-family="sans-serif" font-size="13" lengthAdjust="spacing" textLength="45.2461" x="219.39" y="151.5269">Movies</text><text fill="#FFFFFF" font-family="sans-serif" font-size="13" lengthAdjust="spacing" textLength="8.271" x="196.4379" y="161.5243">1</text><text fill="#FFFFFF" font-family="sans-serif" font-size="13" lengthAdjust="spacing" textLength="23.0356" x="272.3979" y="185.1429">0..*</text></g><!--link MovieUser to AppUser--><g id="link_MovieUser_AppUser"><path codeLine="39" d="M303.03,191.06 C277.93,193.97 246,195.18 218.39,188.46 C200.55,184.11 182.39,176.6 165.79,168.27 " fill="none" id="MovieUser-AppUser" style="stroke:#E7E7E7;stroke-width:1.0;"/><text fill="#FFFFFF" font-family="sans-serif" font-size="13" lengthAdjust="spacing" textLength="29.6309" x="227.39" y="184.5269">User</text><text fill="#FFFFFF" font-family="sans-serif" font-size="13" lengthAdjust="spacing" textLength="6.5" x="288.8849" y="205.7333">*</text><text fill="#FFFFFF" font-family="sans-serif" font-size="13" lengthAdjust="spacing" textLength="8.271" x="167.6249" y="187.8975">1</text></g><!--link Movie to MovieUser--><g id="link_Movie_MovieUser"><path codeLine="38" d="M488.62,203.98 C479.24,208.3 468.96,212.22 458.95,214.46 C436.83,219.4 412.54,213.79 392.4,206.05 " fill="none" id="Movie-MovieUser" style="stroke:#E7E7E7;stroke-width:1.0;"/><text fill="#FFFFFF" font-family="sans-serif" font-size="13" lengthAdjust="spacing" textLength="27.3647" x="430.95" y="210.5269">Film</text><text fill="#FFFFFF" font-family="sans-serif" font-size="13" lengthAdjust="spacing" textLength="8.271" x="472.7671" y="221.4007">1</text><text fill="#FFFFFF" font-family="sans-serif" font-size="13" lengthAdjust="spacing" textLength="23.0356" x="399.9583" y="222.1689">0..*</text></g><!--link MovieUser to Movie--><g id="link_MovieUser_Movie"><path codeLine="40" d="M392.25,183.46 C421.92,183.46 460.73,183.46 488.71,183.46 " fill="none" id="MovieUser-Movie" style="stroke:#E7E7E7;stroke-width:1.0;"/><text fill="#FFFFFF" font-family="sans-serif" font-size="13" lengthAdjust="spacing" textLength="27.3647" x="430.95" y="179.5269">Film</text><text fill="#FFFFFF" font-family="sans-serif" font-size="13" lengthAdjust="spacing" textLength="6.5" x="399.8729" y="196.7325">*</text><text fill="#FFFFFF" font-family="sans-serif" font-size="13" lengthAdjust="spacing" textLength="8.271" x="472.6174" y="197.0163">1</text></g><!--SRC=[TL9DRzim3BthLn2-66XH8zqnA0e4_S02jDqXss57nM5YTh9aYFI0hjr_sJM_mtziaXNNIPhwOkdnlKTIP0wttNPDbZmO3IloM0ev2ok4ZMxB2g7x1ollI50PN0k80q-RIaQkKlbWifCob4Op8wl-3_CLMY5v-S7euLL1-CvPFDbD21rS8-D9rtW0tjMQJ8_aC6l51__6kyPJjvLkor1rMq_XX5mKXVghTbbdJNCYuPeyYtrFCRznngG-hXxTRy8ekOR-o8doLNErGFaGVY2MCLiF3Rd8od5dtqaCZj6VgFsH-EJhH73VisUEm9EJtMtfd85AymBH9cJeVxH8DTwJgMFgV6_qUNf3lK4ro2uktguF9dUe24C8bRkIT7mxVfTbbrcGGZOfYhDihx7fyAQfYCzfVNaZa9qbOk0FAQQffPESvBvp2GL_Qs9v5iqKPi-kbS2E-ydo4ZjeNEkXjGWrKbY3rYCOObgIYVka-1VPHdjTftsUIPZACdZCIsSNz0TXSaovTrRwoEMNJzKZP_8V]--></g></svg>